<?xml version="1.0" encoding="utf-8"?>
<svg xmlns="http://www.w3.org/2000/svg" fill="none" height="100%" overflow="visible" preserveAspectRatio="none" style="display: block;" viewBox="0 0 108 107" width="100%">
<path d="M50.3806 2.69322C51.8216 -0.369658 56.1784 -0.369657 57.6194 2.69322L64.6215 17.5763C65.5574 19.5656 67.9233 20.4267 69.919 19.5044L84.8495 12.6042C87.9222 11.1841 91.2597 13.9847 90.3948 17.2572L86.192 33.1591C85.6303 35.2846 86.8892 37.4651 89.0108 38.0413L104.884 42.3526C108.15 43.2398 108.907 47.5305 106.141 49.4815L92.6996 58.9615C90.903 60.2287 90.4658 62.7082 91.7206 64.5134L101.109 78.0189C103.041 80.7982 100.862 84.5714 97.4893 84.2879L81.0992 82.9103C78.9084 82.7262 76.9797 84.3446 76.7806 86.5341L75.2911 102.914C74.9846 106.285 70.8905 107.776 68.4888 105.39L56.8188 93.7996C55.2589 92.2503 52.7411 92.2503 51.1812 93.7996L39.5112 105.39C37.1095 107.776 33.0154 106.285 32.7089 102.914L31.2194 86.5341C31.0203 84.3446 29.0916 82.7262 26.9008 82.9103L10.5107 84.2879C7.13769 84.5714 4.95925 80.7982 6.89129 78.0189L16.2794 64.5134C17.5342 62.7082 17.097 60.2287 15.3004 58.9615L1.85937 49.4815C-0.906749 47.5305 -0.150183 43.2398 3.11639 42.3526L18.9892 38.0413C21.1108 37.4651 22.3697 35.2846 21.808 33.1591L17.6052 17.2572C16.7403 13.9847 20.0779 11.1841 23.1505 12.6042L38.081 19.5044C40.0767 20.4267 42.4426 19.5656 43.3785 17.5763L50.3806 2.69322Z" fill="var(--fill-0, #FCBE1D)" id="Star"/>
</svg>